<?xml version="1.0" encoding="UTF-8"?>
<svg width="567px" height="100px" viewBox="0 0 567 100" version="1.1" xmlns="http://www.w3.org/2000/svg" xmlns:xlink="http://www.w3.org/1999/xlink">
    <!-- Generator: Sketch 52.6 (67491) - http://www.bohemiancoding.com/sketch -->
    <title>v digital - black</title>
    <desc>Created with Sketch.</desc>
    <g id="vp-guidelines" stroke="none" stroke-width="1" fill="none" fill-rule="evenodd">
        <g id="02-7-Logo-bridge-Copy-2" transform="translate(-790.000000, -299.000000)" fill="#09070D">
            <g id="v-digital---black" transform="translate(790.000000, 299.000000)">
                <g id="Logo-box">
                    <path d="M75.0003125,49.999375 L100,0 L150,0 L100,100 L50,100 L75.0003125,49.999375 L100,99.9975001 L50,100 L0,0 L50,0 L75.0003125,49.999375 Z" id="Logo-mark" fill-rule="nonzero"></path>
                    <circle id="Oval-2-Copy-3" fill-rule="nonzero" cx="200.5" cy="50.5" r="22.5"></circle>
                    <path d="M305.832,8.704 L319.56,8.704 L319.56,74 L306.448,74 L306.448,68.544 C303.016,72.68 298,74.704 291.664,74.704 C278.288,74.704 267.992,65.2 267.992,50.328 C267.992,35.456 278.288,25.952 291.664,25.952 C297.472,25.952 302.4,27.8 305.832,31.672 L305.832,8.704 Z M294.04,63.44 C300.816,63.44 306.096,58.512 306.096,50.328 C306.096,42.144 300.816,37.216 294.04,37.216 C287.176,37.216 281.896,42.144 281.896,50.328 C281.896,58.512 287.176,63.44 294.04,63.44 Z M341.318222,20.056 C336.214222,20.056 332.782222,16.712 332.782222,12.4 C332.782222,8.088 336.214222,4.744 341.318222,4.744 C346.422222,4.744 349.854222,7.912 349.854222,12.136 C349.854222,16.712 346.422222,20.056 341.318222,20.056 Z M334.454222,74 L334.454222,26.656 L348.182222,26.656 L348.182222,74 L334.454222,74 Z M398.980444,26.656 L412.004444,26.656 L412.004444,66.08 C412.004444,83.68 402.500444,91.776 385.428444,91.776 C376.452444,91.776 367.740444,89.576 362.196444,85.264 L367.652444,75.408 C371.700444,78.664 378.300444,80.776 384.372444,80.776 C394.052444,80.776 398.276444,76.376 398.276444,67.84 L398.276444,65.816 C394.668444,69.776 389.476444,71.712 383.316444,71.712 C370.204444,71.712 359.644444,62.648 359.644444,48.832 C359.644444,35.016 370.204444,25.952 383.316444,25.952 C389.916444,25.952 395.372444,28.152 398.980444,32.728 L398.980444,26.656 Z M386.044444,60.448 C393.260444,60.448 398.452444,55.784 398.452444,48.832 C398.452444,41.88 393.260444,37.216 386.044444,37.216 C378.828444,37.216 373.548444,41.88 373.548444,48.832 C373.548444,55.784 378.828444,60.448 386.044444,60.448 Z M433.850666,20.056 C428.746666,20.056 425.314666,16.712 425.314666,12.4 C425.314666,8.088 428.746666,4.744 433.850666,4.744 C438.954666,4.744 442.386666,7.912 442.386666,12.136 C442.386666,16.712 438.954666,20.056 433.850666,20.056 Z M426.986666,74 L426.986666,26.656 L440.714666,26.656 L440.714666,74 L426.986666,74 Z M482.536888,62.032 L486.232888,71.712 C483.416888,73.736 479.280888,74.704 475.056888,74.704 C463.880888,74.704 457.368888,68.984 457.368888,57.72 L457.368888,38.272 L450.064888,38.272 L450.064888,27.712 L457.368888,27.712 L457.368888,16.184 L471.096888,16.184 L471.096888,27.712 L482.888888,27.712 L482.888888,38.272 L471.096888,38.272 L471.096888,57.544 C471.096888,61.592 473.296888,63.792 476.992888,63.792 C479.016888,63.792 481.040888,63.176 482.536888,62.032 Z M515.29511,25.952 C529.72711,25.952 538.08711,32.64 538.08711,46.984 L538.08711,74 L525.23911,74 L525.23911,68.104 C522.68711,72.416 517.75911,74.704 510.80711,74.704 C499.71911,74.704 493.11911,68.544 493.11911,60.36 C493.11911,52 499.01511,46.192 513.44711,46.192 L524.35911,46.192 C524.35911,40.296 520.83911,36.864 513.44711,36.864 C508.43111,36.864 503.23911,38.536 499.80711,41.264 L494.87911,31.672 C500.07111,27.976 507.72711,25.952 515.29511,25.952 Z M514.23911,65.464 C518.81511,65.464 522.77511,63.352 524.35911,59.04 L524.35911,54.2 L514.94311,54.2 C508.51911,54.2 506.49511,56.576 506.49511,59.744 C506.49511,63.176 509.39911,65.464 514.23911,65.464 Z M552.717332,74 L552.717332,8.704 L566.445332,8.704 L566.445332,74 L552.717332,74 Z" id="digital"></path>
                </g>
            </g>
        </g>
    </g>
</svg>